<?xml version="1.0" standalone="no"?><!DOCTYPE svg PUBLIC "-//W3C//DTD SVG 1.1//EN" "http://www.w3.org/Graphics/SVG/1.1/DTD/svg11.dtd"><svg t="1716799213844" class="icon" viewBox="0 0 1024 1024" version="1.1" xmlns="http://www.w3.org/2000/svg" p-id="1343" xmlns:xlink="http://www.w3.org/1999/xlink" width="200" height="200"><path d="M85.333333 256a128 128 0 0 1 128-128h597.333334a128 128 0 0 1 128 128v554.666667a128 128 0 0 1-128 128H213.333333a128 128 0 0 1-128-128V256z" fill="#E3DCD6" p-id="1344"></path><path d="M85.333333 192a128 128 0 0 1 128-128h597.333334a128 128 0 0 1 128 128v554.666667a128 128 0 0 1-128 128H213.333333a128 128 0 0 1-128-128V192z" fill="#FDF6EF" p-id="1345"></path><path d="M85.333333 192a128 128 0 0 1 128-128h597.333334a128 128 0 0 1 128 128v128H85.333333V192z" fill="#EF4D43" p-id="1346"></path><path d="M256 192a42.666667 42.666667 0 1 1-85.333333 0 42.666667 42.666667 0 0 1 85.333333 0z m128 0a42.666667 42.666667 0 1 1-85.333333 0 42.666667 42.666667 0 0 1 85.333333 0z m85.333333 42.666667a42.666667 42.666667 0 1 0 0-85.333334 42.666667 42.666667 0 0 0 0 85.333334z" fill="#FFFFFF" opacity=".7" p-id="1347"></path><path d="M170.666667 426.666667a42.666667 42.666667 0 0 1 42.666666-42.666667h597.333334a42.666667 42.666667 0 0 1 42.666666 42.666667v341.333333a42.666667 42.666667 0 0 1-42.666666 42.666667H213.333333a42.666667 42.666667 0 0 1-42.666666-42.666667V426.666667z" fill="#EF4D43" p-id="1348"></path><path d="M234.666667 725.333333a21.333333 21.333333 0 0 1 21.333333-21.333333h512a21.333333 21.333333 0 1 1 0 42.666667H256a21.333333 21.333333 0 0 1-21.333333-21.333334zM234.666667 640a21.333333 21.333333 0 0 1 21.333333-21.333333h512a21.333333 21.333333 0 1 1 0 42.666666H256a21.333333 21.333333 0 0 1-21.333333-21.333333zM533.333333 554.666667a21.333333 21.333333 0 0 1 21.333334-21.333334h213.333333a21.333333 21.333333 0 1 1 0 42.666667H554.666667a21.333333 21.333333 0 0 1-21.333334-21.333333zM533.333333 469.333333a21.333333 21.333333 0 0 1 21.333334-21.333333h213.333333a21.333333 21.333333 0 1 1 0 42.666667H554.666667a21.333333 21.333333 0 0 1-21.333334-21.333334z" fill="#381715" fill-opacity=".8" p-id="1349"></path><path d="M234.666667 469.333333a21.333333 21.333333 0 0 1 21.333333-21.333333h213.333333a21.333333 21.333333 0 0 1 21.333334 21.333333v85.333334a21.333333 21.333333 0 0 1-21.333334 21.333333H256a21.333333 21.333333 0 0 1-21.333333-21.333333v-85.333334z" fill="#5D221E" p-id="1350"></path></svg>