<svg viewBox="0 0 1024 1024" height="1024" width="1024" xmlns:xlink="http://www.w3.org/1999/xlink" xmlns="http://www.w3.org/2000/svg">
  <defs>
    <linearGradient gradientUnits="objectBoundingBox" y2="1" x2="0.5" x1="0.5" id="linear-gradient">
      <stop stop-color="#fed38c" offset="0"></stop>
      <stop stop-color="#faa333" offset="1"></stop>
    </linearGradient>
    <linearGradient gradientUnits="objectBoundingBox" y2="1" x2="0.5" x1="0.5" id="linear-gradient-2">
      <stop stop-color="#fed28a" offset="0"></stop>
      <stop stop-color="#faa434" offset="1"></stop>
    </linearGradient>
    <clipPath id="clip-郁金香">
      <rect height="1024" width="1024"></rect>
    </clipPath>
  </defs>
  <g clip-path="url(#clip-郁金香)" id="郁金香">
    <rect fill="#fff" height="1024" width="1024"></rect>
    <g transform="translate(404.214 183.927)" id="组_33">
      <path fill="#5baaad" transform="translate(9336.787 -4831.089)" d="M-9304.059,4972.9l-27.744,332.241,20.346-2.505,27.744-332.241Z" id="路径_201"></path>
      <path fill="#fda740" transform="translate(9336.787 -4841.851)" d="M-9305.023,4866.166s4.926-24.315,21.068-24.315,24.625,12.75,26.267,24.315-12.039,32.617-12.039,32.617l-27.088,10.082-13.133-24.018Z" id="路径_199"></path>
      <path fill="url(#linear-gradient)" transform="translate(9336.787 -4840.561)" d="M-9306.118,4985.856c-11.494-8.256-31.465-44.478-30.645-80.653s6.357-44.8,19.409-47.718,21.906,23.4,32.3,34.078c8.208-6.523,24.9-34.692,41.863-27.576s19.152,37.065,9.3,73.537-27.361,47.74-37.759,51S-9294.624,4994.112-9306.118,4985.856Z" id="路径_200"></path>
    </g>
    <g transform="matrix(0.978, -0.208, 0.208, 0.978, 285.441, 297.653)" id="组_34">
      <path fill="#5baaad" transform="translate(8.447 91.794)" d="M18.783,1.368-3.552,225.36l13.818-1.921L32.6-.553Z" id="路径_201-2"></path>
      <path fill="#fda740" transform="translate(18.196 -0.309)" d="M3.082,16.313S6.678-.113,17.622-.3,34.18,8,35.171,15.768s-8.509,22.1-8.509,22.1l-18.47,7.1L-.455,28.945Z" id="路径_199-2"></path>
      <path fill="url(#linear-gradient-2)" transform="translate(-0.177 11.242)" d="M17.186,80.117C10.555,74.464-1.43,56.64-.49,32.277S4.295,2.044,13.175-.072s14.6,15.5,21.539,22.571C40.347,18.012,51.961-1.144,63.385,3.452s13.1,26.149,5.526,49.4-17.569,29.188-24.654,31.5S23.816,85.771,17.186,80.117Z" id="路径_200-2"></path>
    </g>
    <g transform="translate(18.129 389.211)" id="组_32">
      <path fill="#005c62" transform="translate(9722.871 -5031.276)" d="M-9722.812,5183.527c-1.62-12.669,30.845-99.315,57.9-117.556,2.4-1.952,50.5,26.71,50.5,26.71l-32.461-43s80.551-59.934,213.4,36.481c2.405,13.68,27.051,75.568,27.051,75.568v-55.374s79.35,72.312,87.765,93.158,118.638,224.237,118.638,224.237l-39.621,100.187s-74.812,10.425-166.781-63.855c4.2-1.288,27.048-1.94,26.446-4.545s-57.107-25.407-57.107-25.407-85.961-115.308-87.765-118.564,51.1-12.377,51.1-12.377l-66.725-12.378-43.882-44.95,11.422-11.075h-23.444S-9681.753,5136.982-9722.812,5183.527Z" id="路径_197"></path>
      <path stroke-width="2" stroke-linecap="round" stroke="#11838a" fill="none" transform="translate(9722.871 -5023.702)" d="M-9284.408,5415.4s-155.091-241.038-276.518-282.079-161.1,40.39-161.1,40.39" id="路径_198"></path>
    </g>
    <g transform="translate(415.001 105.271)" id="组_35">
      <path fill="#68c8cc" transform="translate(9326 -4769.268)" d="M-9123.893,4769.336c-1.2,20.844-12.623,78.174-24.045,112.7,6.612,13.029,18.033,65.146,18.033,65.146s-24.646-43.648-28.854-44.951c-20.438,51.465-87.765,110.747-97.983,134.851,0,.651,2.407,91.854,2.407,91.854l-15.031-67.75s-58.758,102.311-54.846,198.68c6.4,7.709,27.032,67.072,27.032,67.072s-25.356-35.042-28.812-36.62c-.707,58.706,36.791,200.172,84.28,253.591s179.736-67.751,209.191-114.656,48.691-244.945,48.691-267.1c-9.618,5.212-44.483,18.241-44.483,18.241l44.483-42.344s1.8-170.029-28.854-217.585c-9.018,6.515-33.663,31.27-33.663,31.27s22.241-63.191,22.241-65.146S-9098.048,4767.384-9123.893,4769.336Z" id="路径_202"></path>
      <path stroke-width="2" stroke="#51b2b6" fill="none" transform="translate(9326 -4769.271)" d="M-9183.759,5376.489s142.227-329.439,60.954-607.218" id="路径_203"></path>
    </g>
    <g transform="translate(881.942 328.79) rotate(45)" id="组_36">
      <path fill="#d1f6dc" transform="translate(0.002 0.06)" d="M175.284,7.042c-.516,18.192-5.976,86.68-23.176,119.4,7.348,11.678,10.667,45.105,10.667,45.105s-13.828-27.392-18.259-28.708c-14.957,38.44-45.172,67.816-54.386,80.885.023.57,20.617,57.338,20.617,57.338L80.239,237.974S4.745,325.461,18.177,434.4C25.118,441.411,68,512.469,68,512.469s-37.859-34.957-41.515-36.483c1.328,51.345,63.368,149.657,102.191,194.283,7.369,3.113,58.626-38.5,58.626-38.5l-11.963-15.255,45.087-10.573s54.28-55.848,62.934-67.711c29.039-39.815,67.886-108.516,67.106-127.9-9.838,4.159-63.58,20.387-63.58,20.387l71.5-93.726s4.835-100.026-85.244-226.008c-9.166,5.323-44.849,31.946-44.849,31.946s21.332-58.585,21.264-60.294S221.023,42.79,175.284,7.042Z" id="路径_202-2"></path>
      <path stroke-width="2" stroke="#8bdfa4" fill="none" transform="translate(103.956 4.177)" d="M26.685,664.115S153.666,176.631,72.462,2.912" id="路径_203-2"></path>
    </g>
  </g>
</svg>
