<?xml version="1.0" standalone="no"?><!DOCTYPE svg PUBLIC "-//W3C//DTD SVG 1.1//EN" "http://www.w3.org/Graphics/SVG/1.1/DTD/svg11.dtd"><svg t="1716798470747" class="icon" viewBox="0 0 1024 1024" version="1.1" xmlns="http://www.w3.org/2000/svg" p-id="1328" xmlns:xlink="http://www.w3.org/1999/xlink" width="200" height="200"><path d="M85.333333 256a170.666667 170.666667 0 0 1 170.666667-170.666667h512a170.666667 170.666667 0 0 1 170.666667 170.666667v512a170.666667 170.666667 0 0 1-170.666667 170.666667H256a170.666667 170.666667 0 0 1-170.666667-170.666667V256z" fill="#89382F" p-id="1329"></path><path d="M85.333333 256a170.666667 170.666667 0 0 1 170.666667-170.666667h512a170.666667 170.666667 0 0 1 170.666667 170.666667v469.333333a170.666667 170.666667 0 0 1-170.666667 170.666667H256a170.666667 170.666667 0 0 1-170.666667-170.666667V256z" fill="#EF4D43" p-id="1330"></path><path d="M170.666667 298.666667a128 128 0 0 1 128-128h426.666666a128 128 0 0 1 128 128v384a128 128 0 0 1-128 128H298.666667a128 128 0 0 1-128-128V298.666667z" fill="#FDF6EF" p-id="1331"></path><path d="M234.666667 298.666667a21.333333 21.333333 0 0 1 21.333333-21.333334h256a21.333333 21.333333 0 1 1 0 42.666667H256a21.333333 21.333333 0 0 1-21.333333-21.333333zM234.666667 426.666667a21.333333 21.333333 0 0 1 21.333333-21.333334h256a21.333333 21.333333 0 1 1 0 42.666667H256a21.333333 21.333333 0 0 1-21.333333-21.333333zM234.666667 554.666667a21.333333 21.333333 0 0 1 21.333333-21.333334h512a21.333333 21.333333 0 1 1 0 42.666667H256a21.333333 21.333333 0 0 1-21.333333-21.333333zM234.666667 682.666667a21.333333 21.333333 0 0 1 21.333333-21.333334h512a21.333333 21.333333 0 1 1 0 42.666667H256a21.333333 21.333333 0 0 1-21.333333-21.333333z" fill="#381715" fill-opacity=".8" p-id="1332"></path><path d="M859.797333 54.186667l120.682667 120.682666-271.530667 271.530667-120.682666-120.682667L859.797333 54.186667z" fill="#EF4D43" p-id="1333"></path><path d="M859.797333 54.186667l90.517334 90.496L678.784 416.213333l-90.517333-90.496L859.797333 54.186667z" fill="#5F4441" fill-opacity=".4" p-id="1334"></path><path d="M859.797333 54.186667l45.269334 45.248L633.536 370.986667l-45.269333-45.248L859.797333 54.186667z" fill="#5F4441" fill-opacity=".4" p-id="1335"></path><path d="M588.266667 325.717333l120.682666 120.682667-135.765333 15.082667 15.082667-135.765334z" fill="#D2CBC6" p-id="1336"></path><path d="M627.498667 455.445333l-54.314667 6.037334 6.037333-54.314667 48.277334 48.277333z" fill="#381715" p-id="1337"></path></svg>