<?xml version="1.0" standalone="no"?><!DOCTYPE svg PUBLIC "-//W3C//DTD SVG 1.1//EN" "http://www.w3.org/Graphics/SVG/1.1/DTD/svg11.dtd"><svg height="1024" node-id="1" sillyvg="true" template-height="1024" template-width="1024" version="1.1" viewBox="0 0 1024 1024" width="1024" xmlns="http://www.w3.org/2000/svg" xmlns:xlink="http://www.w3.org/1999/xlink"><defs node-id="44"><clipPath id="clip-马蹄莲" node-id="3"><path d="M 0.00 0.00 L 1024.00 0.00 L 1024.00 1024.00 L 0.00 1024.00 Z" fill="#000000" fill-rule="nonzero" node-id="47" stroke="none" target-height="1024" target-width="1024" target-x="0" target-y="0"></path></clipPath></defs><g clip-path="url(#clip-马蹄莲)" id="马蹄莲" node-id="5"><path d="M 0.00 0.00 L 1024.00 0.00 L 1024.00 1024.00 L 0.00 1024.00 Z" fill="#ffffff" fill-rule="nonzero" node-id="52" stroke="none" target-height="1024" target-width="1024" target-x="0" target-y="0"></path><path d="M 497.20 229.90 L 491.80 233.90 L 486.10 238.60 L 479.90 244.40 L 473.40 251.10 L 461.20 265.40 L 448.20 282.90 L 439.90 295.30 L 431.50 308.90 L 423.10 323.60 L 415.20 338.60 L 407.50 354.60 L 399.90 371.40 L 389.60 397.20 L 380.20 424.40 L 376.10 438.20 L 372.30 452.20 L 368.80 466.40 L 365.80 480.80 L 363.10 495.20 L 361.00 509.70 L 359.30 524.20 L 358.10 538.80 L 357.50 553.40 L 357.40 567.90 L 357.90 582.30 L 359.00 596.70 L 362.40 605.80 L 366.30 614.80 L 370.70 623.60 L 375.50 632.20 L 380.80 640.60 L 386.40 648.80 L 392.40 656.70 L 398.80 664.50 L 407.70 674.60 L 417.00 684.20 L 426.80 693.40 L 436.90 702.30 L 447.10 710.80 L 457.50 718.90 L 478.60 733.90 L 504.50 750.30 L 519.10 758.70 L 533.50 766.50 L 558.20 778.90 L 567.80 783.30 L 587.60 791.70 L 649.60 444.30 L 627.60 404.50 L 604.20 364.80 L 585.70 335.20 L 565.80 305.60 L 555.60 291.50 L 545.30 277.80 L 535.30 265.50 L 528.40 257.60 L 515.50 244.30 L 508.90 238.40 L 502.80 233.70 L 497.20 229.90 Z" fill="#0f2941" fill-rule="nonzero" group-id="1,12" id="路径_344" node-id="8" stroke="none" target-height="561.80005" target-width="292.19998" target-x="357.4" target-y="229.9"></path><path d="M 503.50 249.20 L 498.50 306.40 L 492.30 388.00 L 488.00 458.50 L 485.90 505.40 L 484.70 549.40 L 484.80 588.10 L 486.10 614.50 L 488.00 630.20" fill="none" group-id="1,13" id="路径_345" node-id="9" stroke="#1b3f5f" stroke-linecap="butt" stroke-width="3" target-height="381" target-width="18.799988" target-x="484.7" target-y="249.2"></path><path d="M 609.70 729.10 L 590.50 714.10 L 568.60 698.00 L 540.20 678.60 L 524.40 668.30 L 495.10 650.70 L 470.10 637.00 L 457.20 630.50 L 431.00 618.40 L 417.70 613.00 L 404.40 608.10 L 391.20 603.70 L 371.20 598.40 L 351.90 594.70 L 342.20 593.50 L 332.80 592.90 L 323.60 592.80 L 314.60 593.20 L 307.40 593.90 L 300.50 595.10 L 293.70 596.60 L 287.10 598.60 L 280.70 601.00 L 272.00 604.90 L 264.30 608.80 L 257.80 612.70 L 252.10 616.70 L 246.60 621.30 L 242.00 625.80 L 238.20 630.30 L 235.00 634.90 L 232.30 639.80 L 230.10 644.70 L 228.50 649.60 L 227.50 654.50 L 226.90 659.60 L 226.80 664.60 L 227.00 669.70 L 227.70 674.80 L 229.20 681.50 L 231.20 688.20 L 233.80 694.80 L 236.90 701.30 L 244.00 713.80 L 250.00 722.60 L 256.30 730.70 L 262.80 738.30 L 268.90 744.90 L 275.00 750.80 L 284.80 759.10 L 316.40 780.70 L 327.70 787.80 L 341.40 795.80 L 361.20 806.40 L 372.50 811.80 L 384.00 816.90 L 396.30 821.90 L 409.40 826.70 L 422.70 830.90 L 436.70 834.80 L 451.50 838.20 L 462.60 840.30 L 474.10 842.10 L 485.90 843.40 L 498.10 844.40 L 510.30 844.90 L 522.70 844.90 L 535.60 844.30 L 548.80 843.20 L 574.00 839.80 L 584.70 837.80 L 604.10 833.00 L 612.70 830.30 L 627.10 824.90 L 633.90 821.60 L 644.90 815.30 L 649.30 812.20 L 654.90 807.60 L 659.40 803.20 L 663.00 799.00 L 666.10 794.40 L 668.40 790.30 L 670.10 786.40 L 672.20 778.90 L 672.80 771.50 L 672.20 765.80 Z" fill="#4b9c81" fill-rule="nonzero" group-id="2,14" id="路径_346" node-id="11" stroke="none" target-height="252.10004" target-width="446" target-x="226.8" target-y="592.8"></path><path d="M 233.80 647.10 L 660.50 783.00" fill="none" group-id="2,15" id="路径_347" node-id="12" stroke="#2a8063" stroke-linecap="butt" stroke-width="6" target-height="135.90002" target-width="426.7" target-x="233.8" target-y="647.1"></path><path d="M 557.80 793.40 L 587.00 754.20 L 629.40 698.80 L 654.10 667.50 L 679.60 636.10 L 704.70 606.40 L 728.40 580.10 L 739.60 568.40 L 749.40 558.80 L 756.00 552.80 L 766.70 544.40 L 780.60 535.00 L 794.10 526.40 L 803.20 521.10 L 820.50 511.90 L 829.10 507.90 L 837.30 504.60 L 850.80 500.30 L 856.30 499.10 L 866.30 498.00 L 871.30 498.10 L 875.80 498.60 L 880.00 499.70 L 883.90 501.20 L 886.80 502.80 L 889.50 504.70 L 892.00 507.00 L 894.30 509.70 L 896.50 512.90 L 898.60 517.00 L 900.40 521.40 L 901.70 526.10 L 902.60 531.20 L 903.00 536.70 L 903.00 542.60 L 902.40 549.30 L 901.10 556.40 L 899.20 564.10 L 896.40 572.30 L 892.80 581.10 L 889.00 589.20 L 884.40 597.80 L 878.90 606.80 L 872.60 616.20 L 865.40 626.20 L 858.10 635.40 L 850.00 644.90 L 841.00 654.80 L 831.00 665.00 L 820.10 675.70 L 810.80 684.00 L 790.40 701.30 L 774.20 713.90 L 757.20 726.50 L 722.90 750.50 L 689.70 772.30 L 659.90 790.90 L 635.80 805.40 L 613.70 818.10 Z" fill="#236c25" fill-rule="nonzero" group-id="3,16" id="路径_348" node-id="14" stroke="none" target-height="320.09998" target-width="345.2" target-x="557.8" target-y="498"></path><path d="M 893.50 511.80 L 887.10 514.50 L 874.60 521.60 L 865.40 527.80 L 855.30 535.00 L 842.40 545.10 L 823.60 561.20 L 812.10 571.70 L 788.00 594.80 L 773.80 609.20 L 744.40 640.50 L 727.40 659.50 L 692.30 700.40 L 652.60 749.00 L 608.10 806.20" fill="none" group-id="3,17" id="路径_349" node-id="15" stroke="#3d903f" stroke-linecap="butt" stroke-width="3.0014186" target-height="294.40002" target-width="285.40002" target-x="608.1" target-y="511.8"></path><path d="M 608.20 784.60 L 611.40 730.00 L 617.10 652.10 L 620.90 607.80 L 625.40 562.80 L 630.50 519.60 L 636.30 480.40 L 639.50 462.60 L 642.60 447.60 L 645.00 438.00 L 649.60 423.60 L 656.40 406.30 L 663.40 390.10 L 668.40 379.40 L 678.30 360.30 L 683.60 351.30 L 688.90 343.30 L 694.10 336.10 L 698.40 330.90 L 702.60 326.40 L 710.70 319.30 L 715.10 316.40 L 719.40 314.10 L 723.70 312.60 L 727.90 311.60 L 731.40 311.40 L 734.90 311.50 L 738.40 312.20 L 742.00 313.30 L 745.70 314.90 L 749.90 317.50 L 754.00 320.50 L 757.80 324.10 L 761.50 328.30 L 765.00 333.20 L 768.40 338.80 L 771.10 344.30 L 773.70 350.30 L 776.00 357.00 L 778.10 364.30 L 779.90 372.30 L 781.40 381.20 L 782.70 391.10 L 783.50 401.90 L 783.90 413.70 L 783.70 426.40 L 783.10 440.20 L 781.90 453.30 L 780.30 467.10 L 778.00 481.90 L 775.10 497.60 L 771.50 514.20 L 768.50 526.20 L 761.50 551.50 L 755.40 570.80 L 748.80 590.40 L 734.40 629.40 L 726.90 648.50 L 712.00 684.60 L 691.80 730.40 L 671.50 773.70 Z" fill="#9febe8" fill-rule="nonzero" group-id="4,18" id="路径_348-2" node-id="17" stroke="none" target-height="473.19998" target-width="175.70001" target-x="608.2" target-y="311.4"></path><path d="M 744.90 315.70 L 740.60 322.20 L 733.20 336.40 L 728.30 347.80 L 723.30 360.80 L 717.40 378.10 L 709.50 404.70 L 705.00 421.50 L 696.60 457.80 L 692.00 480.00 L 683.50 527.40 L 679.10 555.60 L 675.10 583.80 L 671.10 615.30 L 667.00 650.20 L 663.50 685.10 L 660.00 723.60 L 656.60 765.80" fill="none" group-id="4,19" id="路径_349-2" node-id="18" stroke="#ffffff" stroke-linecap="butt" stroke-width="1" target-height="450.09998" target-width="88.30005" target-x="656.6" target-y="315.7"></path><path d="M 395.60 221.80 L 405.90 226.50 L 423.00 235.40 L 434.00 241.90 L 445.40 249.10 L 458.20 258.00 L 466.70 264.30 L 484.50 279.10 L 493.30 287.10 L 502.10 295.90 L 510.90 305.40 L 523.30 320.40 L 535.10 337.00 L 540.60 345.70 L 545.70 354.70 L 550.60 364.20 L 555.10 374.20 L 560.60 387.60 L 565.10 399.50 L 568.70 410.20 L 571.90 421.00 L 574.40 430.70 L 576.20 439.20 L 577.50 447.90 L 578.40 455.60 L 578.70 469.30 L 577.70 481.10 L 576.30 489.30 L 574.50 496.50 L 566.40 522.60 L 565.10 528.90 L 564.20 535.70 L 564.20 547.60 L 565.50 563.80 L 568.30 582.80 L 572.60 603.50 L 578.60 626.00 L 586.50 649.40 L 591.10 661.10 L 596.20 672.80 L 601.80 684.40 L 607.90 695.90 L 614.50 706.90 L 621.70 717.70 L 627.40 725.50 L 633.50 733.00 L 639.90 740.20 L 646.50 747.00" fill="none" group-id="5,20" id="路径_350" node-id="20" stroke="#24735c" stroke-linecap="butt" stroke-width="5" target-height="525.2" target-width="250.9" target-x="395.6" target-y="221.8"></path><path d="M 620.30 543.70 L 624.50 542.50 L 628.80 541.90 L 633.20 541.70 L 637.60 542.10 L 641.80 543.00 L 645.80 544.30 L 649.70 546.00 L 653.20 548.10 L 656.20 550.50 L 659.90 554.80 L 662.20 559.60 L 662.90 563.10 L 663.20 566.20 L 662.90 569.00 L 662.20 571.60 L 661.10 574.00 L 659.40 576.40 L 657.20 578.70 L 654.40 581.10 L 650.40 583.70 L 645.40 586.50 L 639.20 589.40 L 634.20 591.30 L 621.90 594.40 L 602.10 597.40 L 579.20 599.30 L 590.20 579.30 L 601.10 562.50 L 609.00 552.60 L 612.80 548.70 L 615.60 546.40 L 620.30 543.70 Z M 486.50 570.50 L 483.10 566.50 L 480.60 562.80 L 479.00 559.40 L 477.90 555.70 L 477.40 552.30 L 477.60 549.20 L 478.30 546.10 L 479.40 543.30 L 481.10 540.70 L 483.10 538.40 L 485.50 536.40 L 488.20 534.60 L 491.10 533.30 L 494.30 532.30 L 497.70 531.80 L 501.10 531.60 L 504.60 532.00 L 508.20 532.80 L 513.50 534.80 L 518.90 537.60 L 524.30 540.80 L 534.40 548.30 L 538.90 552.10 L 546.50 559.30 L 551.50 564.90 L 553.00 567.50 L 550.40 569.20 L 539.90 574.20 L 529.50 577.60 L 523.80 579.00 L 517.90 579.90 L 511.90 580.20 L 507.30 580.00 L 502.80 579.30 L 498.30 578.00 L 495.20 576.80 L 492.20 575.10 L 489.30 573.00 L 486.50 570.50 Z M 584.10 516.20 L 592.50 506.50 L 601.50 497.00 L 612.40 486.60 L 618.20 481.60 L 628.00 474.40 L 635.30 470.20 L 639.10 468.70 L 642.40 467.90 L 645.40 467.60 L 649.70 467.90 L 653.60 468.60 L 657.40 469.60 L 661.00 471.00 L 664.20 472.70 L 666.90 474.60 L 669.40 476.90 L 671.20 479.40 L 672.60 482.00 L 673.50 486.30 L 672.90 491.10 L 672.10 493.40 L 668.90 498.40 L 666.50 501.10 L 664.00 503.20 L 660.90 505.20 L 653.40 508.60 L 644.50 511.20 L 637.40 512.70 L 622.30 514.80 L 601.40 516.10 L 584.10 516.20 Z M 504.50 481.10 L 501.70 479.40 L 499.50 477.50 L 497.70 475.60 L 496.40 473.50 L 495.10 470.40 L 494.50 467.20 L 494.50 463.90 L 495.10 460.50 L 496.10 457.30 L 497.70 454.10 L 499.70 451.10 L 502.10 448.50 L 504.90 446.10 L 507.90 444.20 L 511.20 442.80 L 514.70 441.90 L 517.40 441.70 L 523.10 442.40 L 526.20 443.40 L 533.20 446.70 L 540.00 450.70 L 546.50 455.00 L 552.40 459.50 L 557.90 464.00 L 566.40 472.00 L 568.90 474.90 L 570.80 477.40 L 571.00 478.10 L 567.10 479.80 L 557.50 482.40 L 544.30 484.80 L 536.90 485.60 L 529.20 485.90 L 522.50 485.60 L 516.20 484.80 L 512.00 483.90 L 504.50 481.10 Z M 584.60 441.30 L 584.10 440.40 L 584.10 438.90 L 584.70 436.30 L 586.20 432.50 L 588.80 427.50 L 592.10 422.40 L 596.10 416.80 L 600.60 411.30 L 609.20 402.80 L 616.50 397.40 L 620.30 395.30 L 624.10 393.80 L 627.70 392.90 L 635.20 391.90 L 641.40 391.50 L 646.60 391.60 L 651.70 392.20 L 655.50 393.00 L 658.30 394.10 L 660.40 395.20 L 662.50 397.50 L 663.00 400.50 L 662.70 403.10 L 661.90 405.80 L 660.40 409.00 L 657.10 413.30 L 652.10 418.00 L 648.80 420.30 L 640.20 425.20 L 634.40 427.80 L 621.80 433.00 L 608.80 437.70 L 602.40 439.50 L 591.80 441.90 L 586.40 442.10 L 584.60 441.30 Z M 464.80 394.80 L 458.80 391.90 L 454.60 388.40 L 452.50 385.60 L 451.00 382.70 L 450.10 379.70 L 449.70 376.50 L 449.80 373.40 L 450.50 370.20 L 451.70 367.20 L 453.30 364.30 L 455.30 361.60 L 457.80 359.20 L 460.60 357.20 L 463.80 355.50 L 467.30 354.30 L 471.10 353.60 L 475.30 353.50 L 483.20 354.10 L 491.60 355.30 L 500.00 356.90 L 515.90 360.70 L 528.60 364.50 L 532.80 366.00 L 536.10 367.50 L 536.60 368.00 L 533.80 370.70 L 526.40 376.00 L 515.60 382.70 L 502.60 389.30 L 495.70 392.10 L 488.70 394.30 L 479.30 396.10 L 471.50 396.20 L 464.80 394.80 Z M 565.30 301.30 L 569.00 296.80 L 572.60 293.10 L 576.20 290.20 L 580.10 287.70 L 583.80 285.90 L 587.40 284.60 L 594.30 283.30 L 600.20 283.60 L 604.60 285.10 L 606.20 286.30 L 607.50 288.00 L 608.50 290.10 L 609.60 295.00 L 609.70 297.80 L 609.50 302.10 L 608.80 306.50 L 607.70 310.60 L 606.20 314.20 L 603.00 320.00 L 597.20 328.90 L 589.70 339.60 L 581.10 350.50 L 572.20 360.20 L 567.70 364.30 L 563.60 367.30 L 560.80 368.90 L 558.30 369.90 L 556.10 370.40 L 555.20 368.30 L 554.60 365.50 L 553.80 355.40 L 554.20 341.80 L 554.90 334.50 L 556.00 327.00 L 557.50 319.60 L 559.50 312.80 L 561.30 308.40 L 563.20 304.60 L 565.30 301.30 Z M 396.00 326.10 L 393.10 324.70 L 390.90 323.10 L 389.20 321.40 L 388.00 319.60 L 386.60 315.50 L 386.70 311.10 L 387.50 308.20 L 388.90 305.30 L 390.90 302.40 L 393.30 299.80 L 396.10 297.50 L 399.50 295.40 L 403.10 293.80 L 407.00 292.70 L 411.40 292.00 L 417.10 291.70 L 431.00 291.80 L 453.00 293.20 L 471.30 295.30 L 478.00 296.80 L 478.70 297.30 L 478.40 297.90 L 476.00 299.60 L 468.40 304.20 L 457.10 310.00 L 443.70 316.20 L 429.30 321.80 L 422.20 324.10 L 411.00 326.70 L 407.10 327.20 L 400.90 327.30 L 396.00 326.10 Z M 499.60 213.20 L 501.40 210.60 L 505.30 206.70 L 507.50 205.30 L 510.60 203.90 L 513.80 203.10 L 517.20 203.00 L 520.40 203.60 L 523.60 204.70 L 526.70 206.50 L 528.80 208.20 L 532.50 212.70 L 534.10 215.60 L 536.30 221.90 L 537.40 230.20 L 537.20 235.00 L 536.40 239.80 L 535.10 244.60 L 531.20 253.90 L 528.80 258.40 L 524.70 264.80 L 516.00 276.00 L 512.00 280.40 L 502.90 289.30 L 500.40 277.40 L 498.30 265.00 L 496.50 250.70 L 496.00 243.40 L 495.70 236.20 L 495.90 229.20 L 496.50 223.10 L 497.30 219.20 L 498.30 215.90 L 499.60 213.20 Z M 343.00 273.80 L 335.80 270.70 L 330.90 266.90 L 327.30 262.40 L 326.20 260.00 L 325.10 255.10 L 325.40 250.20 L 327.30 245.50 L 328.70 243.40 L 332.60 239.40 L 335.00 237.80 L 340.80 235.20 L 344.30 234.30 L 352.70 233.50 L 357.60 233.60 L 365.00 234.30 L 372.80 235.50 L 380.60 237.10 L 395.10 240.90 L 414.10 247.10 L 403.80 254.40 L 392.80 261.10 L 379.70 267.90 L 372.70 270.80 L 365.70 273.00 L 360.90 274.20 L 356.30 274.90 L 348.90 275.00 L 343.00 273.80 Z M 428.40 181.20 L 432.00 175.60 L 436.90 170.80 L 442.70 166.90 L 445.80 165.30 L 451.90 163.30 L 455.00 162.80 L 457.80 162.70 L 460.40 163.10 L 462.80 163.90 L 464.80 165.20 L 466.50 167.10 L 468.00 169.80 L 469.00 172.80 L 469.50 176.00 L 469.50 179.30 L 468.30 186.50 L 466.50 192.00 L 464.20 197.80 L 458.70 209.30 L 455.50 214.70 L 452.00 219.70 L 448.20 224.20 L 444.70 227.90 L 436.60 235.20 L 431.40 219.40 L 428.50 207.70 L 427.40 201.70 L 426.70 195.60 L 426.60 190.20 L 426.90 186.70 L 427.50 183.70 L 428.40 181.20 Z M 340.10 182.40 L 338.20 178.20 L 336.90 173.90 L 336.10 169.60 L 335.70 165.10 L 335.70 160.80 L 336.10 156.60 L 336.90 152.40 L 339.30 145.10 L 341.00 141.70 L 342.80 139.00 L 344.80 136.70 L 347.00 134.90 L 349.20 133.80 L 351.50 133.30 L 353.60 133.40 L 358.40 134.90 L 361.20 136.50 L 364.60 138.90 L 368.20 141.90 L 375.50 149.80 L 382.50 159.20 L 387.40 166.90 L 391.70 174.90 L 394.60 181.60 L 397.00 188.20 L 398.90 194.90 L 401.60 207.10 L 403.40 222.60 L 392.70 218.20 L 381.80 213.20 L 369.50 206.70 L 363.30 203.10 L 357.30 199.20 L 351.70 195.10 L 347.00 191.00 L 344.10 188.00 L 340.10 182.40 Z" fill="#97dfca" fill-rule="nonzero" group-id="5,21" id="联合_25" node-id="21" stroke="none" target-height="466" target-width="348.4" target-x="325.1" target-y="133.3"></path><path d="M 0.00 908.80 L 58.80 947.00 L 783.30 869.70 L 739.50 821.20 L 605.10 829.80 L 598.00 607.10 L 486.30 589.90 L 391.70 854.10 L 395.60 654.00 L 251.10 703.20 L 318.30 858.70 L 298.00 836.40 L 280.50 818.80 L 259.50 799.50 L 248.00 789.80 L 232.10 777.50 L 215.70 766.30 L 207.50 761.40 L 193.10 754.00 L 187.00 751.50 L 175.30 747.80 L 170.00 746.70 L 165.00 746.20 L 160.40 746.20 L 156.00 746.60 L 151.70 747.50 L 147.60 748.70 L 143.60 750.30 L 139.90 752.30 L 135.20 755.40 L 130.80 759.00 L 126.60 763.10 L 122.80 767.50 L 116.00 777.20 L 111.60 784.90 L 107.80 792.70 L 104.50 800.60 L 99.50 815.10 L 97.70 821.10 L 94.80 833.70 L 255.00 890.80 Z" fill="#6ea582" fill-rule="nonzero" group-id="6" id="路径_372" node-id="22" stroke="none" target-height="357.09998" target-width="783.3" target-x="0" target-y="589.9"></path><path d="M 390.30 562.90 L 407.80 576.30 L 426.70 592.80 L 437.70 603.10 L 450.10 615.50 L 466.80 633.70 L 484.50 654.80 L 493.30 666.30 L 502.20 678.60 L 510.70 691.20 L 519.00 704.60 L 527.20 718.70" fill="none" group-id="7,22" id="路径_363" node-id="24" stroke="#89efea" stroke-linecap="butt" stroke-width="3" target-height="155.79999" target-width="136.90002" target-x="390.3" target-y="562.9"></path><path d="M 312.70 532.00 L 325.90 534.30 L 332.00 535.70 L 346.30 539.90 L 353.80 542.70 L 363.40 547.10 L 372.20 552.60 L 376.00 555.70 L 382.50 562.40 L 386.90 565.70 L 389.00 566.50 L 390.50 566.50 L 391.70 565.90 L 392.70 564.90 L 393.50 563.30 L 394.10 561.10 L 394.40 557.50 L 394.30 552.80 L 392.80 542.60 L 391.50 537.20 L 385.80 518.60 L 378.30 491.80 L 375.40 482.60 L 374.20 479.60 L 373.60 479.00 L 370.30 481.10 L 353.40 495.60 L 312.70 532.00 Z" fill="#fd7797" fill-rule="nonzero" group-id="7,23" id="路径_364" node-id="25" stroke="none" target-height="87.5" target-width="81.69998" target-x="312.7" target-y="479"></path><path d="M 219.20 517.40 L 229.40 515.90 L 252.00 511.60 L 263.80 508.70 L 273.80 505.70 L 277.90 503.90 L 297.70 491.60 L 310.70 484.30 L 324.50 477.00 L 337.70 470.70 L 348.80 466.40 L 352.00 465.50 L 356.10 465.10 L 359.70 465.60 L 363.30 466.70 L 367.70 468.80 L 371.20 471.90 L 372.50 473.90 L 373.40 476.20 L 373.80 478.60 L 373.70 481.40 L 373.00 484.80 L 371.80 488.00 L 369.80 491.90 L 366.80 496.40 L 364.40 499.50 L 356.90 506.90 L 352.50 510.50 L 341.60 518.10 L 335.50 521.60 L 329.00 525.00 L 321.80 528.10 L 314.50 530.90 L 306.80 533.20 L 298.70 535.00 L 292.50 536.10 L 279.80 537.00 L 273.20 536.80 L 266.70 536.30 L 260.00 535.30 L 253.30 533.70 L 246.40 531.60 L 239.70 529.10 L 233.00 525.90 L 226.20 522.00 L 219.20 517.40 Z" fill="#ffd8e1" fill-rule="nonzero" group-id="7,24" id="路径_365" node-id="26" stroke="none" target-height="71.899994" target-width="154.59999" target-x="219.2" target-y="465.1"></path><path d="M 292.80 475.10 L 302.80 479.80 L 307.00 482.40 L 314.60 488.20 L 319.90 494.00 L 322.10 497.30 L 323.90 500.80 L 325.20 504.60" fill="none" group-id="7,25" id="路径_366" node-id="27" stroke="#f9ab67" stroke-linecap="round" stroke-width="3" target-height="29.5" target-width="32.400024" target-x="292.8" target-y="475.1"></path><path d="M 327.00 499.60 L 323.30 488.10 L 322.00 482.70 L 319.90 470.00 L 319.50 463.50 L 319.60 459.10 L 320.90 450.90" fill="none" group-id="7,26" id="路径_367" node-id="28" stroke="#f9ab67" stroke-linecap="round" stroke-width="3" target-height="48.700012" target-width="7.5" target-x="319.5" target-y="450.9"></path><path d="M 740.40 502.80 L 733.30 512.60 L 727.70 521.30 L 721.60 531.40 L 714.10 545.00 L 703.70 565.70 L 697.80 578.60 L 686.40 606.20 L 680.40 622.60 L 674.70 639.10 L 669.10 657.20 L 663.40 677.20 L 658.20 697.30 L 653.20 719.10 L 648.40 742.80" fill="none" group-id="8,27" id="路径_368" node-id="30" stroke="#89efea" stroke-linecap="butt" stroke-width="3" target-height="240" target-width="92" target-x="648.4" target-y="502.8"></path><path d="M 775.70 408.50 L 735.20 486.40 L 734.70 490.40 L 735.10 493.70 L 736.20 497.00 L 738.60 501.00 L 740.20 502.70 L 742.10 504.00 L 744.40 504.90 L 747.00 505.30 L 749.70 505.10 L 752.80 504.30 L 756.60 502.70 L 762.70 498.60 L 770.90 491.40 L 786.30 476.10 L 796.70 466.50 L 803.70 461.30 L 810.50 457.60 L 813.80 456.60 L 817.00 456.10 L 860.50 454.10 L 875.60 452.80 L 887.60 450.70 L 890.80 449.70 L 892.90 448.60 L 894.20 447.70 L 893.80 446.50 L 892.70 445.30 L 890.50 444.00 L 886.60 442.50 L 875.20 440.00 L 854.60 437.50 L 829.10 435.90 L 791.30 414.50 Z" fill="#fd7797" fill-rule="nonzero" group-id="8,28" id="路径_369" node-id="31" stroke="none" target-height="96.79999" target-width="159.5" target-x="734.7" target-y="408.5"></path><path d="M 980.10 398.70 L 969.70 398.90 L 962.70 398.70 L 946.40 397.20 L 937.40 395.70 L 927.80 393.60 L 921.40 391.80 L 909.00 387.10 L 903.00 384.10 L 897.30 380.70 L 887.20 373.20 L 882.50 370.20 L 877.70 367.60 L 872.80 365.50 L 867.80 363.70 L 862.80 362.40 L 852.70 360.80 L 846.00 360.60 L 839.30 360.90 L 832.70 361.80 L 826.20 363.20 L 819.80 365.10 L 813.70 367.40 L 807.70 370.20 L 802.10 373.30 L 796.80 376.80 L 793.00 379.70 L 786.40 386.00 L 781.30 393.10 L 779.30 396.80 L 777.70 400.50 L 776.60 404.30 L 775.90 408.20 L 775.80 412.00 L 776.20 415.80 L 777.10 419.60 L 778.50 423.20 L 780.50 426.60 L 783.20 430.10 L 786.70 433.50 L 790.40 436.30 L 794.90 439.10 L 800.40 441.70 L 806.90 444.10 L 815.70 446.60 L 824.50 448.50 L 833.20 449.80 L 841.90 450.70 L 858.50 451.20 L 870.40 450.70 L 880.80 449.80 L 898.20 447.10 L 908.70 444.60 L 911.70 443.60 L 916.70 441.40 L 928.70 435.30 L 942.90 427.10 L 950.20 422.50 L 964.30 412.70 L 970.40 408.00 L 976.00 403.00 L 980.10 398.70 Z" fill="#ffd8e1" fill-rule="nonzero" group-id="8,29" id="路径_370" node-id="32" stroke="none" target-height="90.600006" target-width="204.29999" target-x="775.8" target-y="360.6"></path><path d="M 811.90 351.40 L 815.60 352.80 L 818.40 354.60 L 821.40 357.00 L 824.90 360.70 L 827.10 363.50 L 832.00 371.40 L 836.40 381.40 L 838.60 388.00 L 840.40 394.70 L 842.00 402.70 L 843.50 412.00 L 848.20 404.10 L 851.00 400.30 L 855.50 395.00 L 860.30 390.20 L 865.40 385.90 L 870.40 382.30 L 877.00 378.50 L 883.10 376.40 L 885.80 376.00 L 888.10 376.00" fill="none" group-id="8,30" id="路径_371" node-id="33" stroke="#f9ab67" stroke-linecap="round" stroke-width="3" target-height="60.600006" target-width="76.19995" target-x="811.9" target-y="351.4"></path><path d="M 421.40 730.20 L 429.80 735.80 L 433.50 737.70 L 439.30 739.60 L 442.80 740.20 L 446.30 740.30 L 450.30 740.00 L 455.00 739.20 L 459.50 737.90 L 464.80 735.90 L 470.90 733.00 L 476.80 739.50 L 502.70 764.90 L 486.50 728.90 L 508.70 721.60 L 526.40 716.80 L 536.30 714.50 L 546.40 712.70 L 556.60 711.20 L 563.40 710.60 L 576.30 710.40 L 584.60 723.00 L 617.40 770.00 L 611.40 721.00 L 640.00 737.50 L 664.80 753.30 L 680.30 764.40 L 686.70 769.60 L 690.60 773.20 L 696.00 779.30 L 697.90 782.30 L 699.70 786.00 L 701.20 790.30 L 703.00 797.00 L 704.40 804.70 L 705.40 812.50 L 706.10 820.60 L 706.60 836.10 L 706.40 849.60 L 705.70 862.50 L 689.50 865.30 L 671.70 868.00 L 637.90 871.90 L 612.60 873.50 L 600.00 873.80 L 587.50 873.70 L 575.50 873.00 L 567.70 872.30 L 553.60 869.90 L 572.40 863.60 L 602.30 852.00 L 518.00 860.20 L 504.90 854.30 L 491.80 847.50 L 484.60 843.40 L 477.00 838.60 L 469.70 833.50 L 462.70 828.00 L 458.30 824.00 L 451.00 815.90 L 448.00 811.60 L 445.70 807.20 L 444.00 802.80 L 443.90 803.10 L 456.00 794.10 L 433.80 790.80 L 427.80 774.40 L 424.10 761.70 L 422.50 755.00 L 421.30 748.20 L 420.70 741.80 L 420.60 737.50 L 421.40 730.20 Z" fill="#20545a" fill-rule="nonzero" group-id="9,31" id="路径_373" node-id="35" stroke="none" target-height="163.39996" target-width="285.99997" target-x="420.6" target-y="710.4"></path><path d="M 435.40 740.10 L 438.00 743.70 L 441.20 747.20 L 446.80 752.60 L 453.40 758.40 L 463.00 765.70 L 478.20 775.80 L 488.10 781.60 L 498.20 787.10 L 510.00 792.90 L 523.60 799.10 L 537.30 804.90 L 553.00 810.80 L 570.80 816.90 L 588.70 822.50 L 608.80 828.10 L 631.20 833.70 L 647.90 837.40 L 685.30 844.70 L 706.20 848.20" fill="none" group-id="9,32" id="路径_374" node-id="36" stroke="#2d666d" stroke-linecap="butt" stroke-width="2" target-height="108.10004" target-width="270.80002" target-x="435.4" target-y="740.1"></path><path d="M 792.70 405.20 L 795.90 412.70 L 797.70 417.70 L 799.50 425.60 L 800.30 435.30 L 800.00 440.70 L 799.20 446.80 L 796.90 455.80 L 792.60 466.20 L 786.70 476.60 L 782.70 482.30 L 777.90 488.40 L 787.20 549.10 L 767.20 502.80 L 751.00 524.00 L 746.70 530.30 L 744.60 534.20 L 744.20 538.50 L 744.50 545.60 L 746.90 570.30 L 741.30 556.00 L 738.40 549.60 L 736.00 545.30 L 734.70 544.50 L 715.80 584.80 L 710.20 597.40 L 704.70 611.10 L 704.30 612.80 L 704.40 614.70 L 707.50 628.70 L 717.30 663.70 L 695.50 641.00 L 693.20 654.70 L 688.40 686.60 L 686.30 705.20 L 684.80 723.10 L 684.50 731.60 L 684.80 743.60 L 685.80 750.60 L 691.80 757.90 L 707.10 774.60 L 687.70 771.90 L 690.80 800.00 L 693.20 816.90 L 696.20 834.50 L 700.00 850.90 L 702.20 858.30 L 704.40 864.20 L 706.10 867.90 L 709.40 872.70 L 713.10 875.00 L 715.50 875.70 L 718.40 876.20 L 726.60 876.00 L 731.60 875.30 L 739.10 873.60 L 747.20 871.20 L 763.30 865.40 L 777.90 859.00 L 793.20 851.20 L 795.00 850.00 L 796.10 848.60 L 807.30 829.20 L 831.50 783.50 L 893.00 663.70 L 894.40 659.40 L 896.50 651.40 L 898.70 641.00 L 901.30 624.00 L 901.70 613.90 L 901.30 610.00 L 897.90 610.50 L 891.30 612.30 L 875.00 617.40 L 902.40 590.70 L 899.60 569.00 L 896.40 552.80 L 894.30 544.40 L 891.70 536.10 L 888.80 528.50 L 886.50 523.60 L 884.00 519.30 L 881.40 515.70 L 857.20 531.90 L 835.10 545.30 L 869.40 490.30 L 846.90 458.80 L 834.30 474.20 L 839.80 449.00 L 823.70 432.10 L 805.40 414.40 L 797.70 408.00 L 794.50 405.90 L 792.70 405.20 Z" fill="#46a5b0" fill-rule="nonzero" group-id="10,33" id="路径_375" node-id="38" stroke="none" target-height="471" target-width="217.90002" target-x="684.5" target-y="405.2"></path><path d="M 710.60 879.80 L 715.70 844.30 L 721.20 813.70 L 729.00 777.00 L 733.90 756.70 L 739.30 736.10 L 750.10 700.30 L 760.20 671.40 L 765.70 657.00 L 771.60 642.90 L 782.60 618.50 L 790.50 598.10 L 793.80 588.20 L 797.70 574.70 L 801.00 561.70 L 803.60 549.10 L 805.70 536.40 L 807.30 524.30 L 808.40 512.80 L 809.20 501.20 L 809.60 480.50 L 809.20 465.80 L 808.40 453.30 L 807.20 441.60 L 804.60 424.30 L 802.50 414.40" fill="none" group-id="10,34" id="路径_376" node-id="39" stroke="#66bbc5" stroke-linecap="butt" stroke-width="2" target-height="465.4" target-width="99" target-x="710.6" target-y="414.4"></path><path d="M 713.60 802.90 L 712.40 825.90 L 712.20 839.30 L 712.70 852.90 L 714.20 864.90 L 715.80 871.30 L 716.80 873.60 L 717.60 874.50 L 718.80 875.20 L 720.90 875.70 L 727.80 875.80 L 739.10 874.30 L 748.80 872.30 L 760.30 869.50 L 785.50 862.60 L 812.50 854.40 L 839.20 845.60 L 863.70 837.30 L 902.20 823.70 L 865.70 802.90 L 952.60 791.30 L 964.40 779.00 L 976.20 765.60 L 989.30 749.30 L 995.70 740.50 L 1001.80 731.50 L 1008.80 719.30 L 1011.60 713.40 L 1014.10 707.40 L 1015.80 701.70 L 1016.90 696.50 L 1011.90 696.60 L 1001.20 696.00 L 985.50 693.70 L 1018.30 660.40 L 1014.90 636.90 L 1010.90 616.60 L 1007.40 603.90 L 1005.50 598.70 L 1002.60 592.90 L 1001.20 591.10 L 999.50 594.80 L 997.30 598.70 L 994.30 602.70 L 987.30 610.30 L 976.60 619.40 L 969.80 624.50 L 956.10 633.30 L 944.00 639.80 L 933.90 644.10 L 932.20 645.40 L 930.30 647.50 L 927.90 651.10 L 925.20 655.90 L 920.50 666.50 L 916.30 677.90 L 910.10 698.30 L 905.90 655.80 L 813.50 700.20 L 807.50 747.40 L 801.90 706.70 L 789.90 713.80 L 777.40 722.00 L 763.00 732.70 L 755.70 738.70 L 743.80 749.80 L 735.40 759.20 L 731.60 764.20 L 728.30 769.20 L 725.60 774.20 L 725.30 782.50 L 726.00 793.50 L 727.20 805.20 L 730.20 826.40 Z" fill="#d1f2db" fill-rule="nonzero" group-id="11,35" id="路径_377" node-id="41" stroke="none" target-height="284.7" target-width="306.09998" target-x="712.2" target-y="591.1"></path><path d="M 730.20 873.80 L 738.70 858.50 L 748.10 842.60 L 759.80 824.30 L 766.30 814.90 L 773.20 805.70 L 780.30 796.90 L 787.30 789.00 L 792.20 784.10 L 796.90 780.00 L 801.40 776.50 L 808.10 772.30 L 814.60 768.70 L 821.10 765.70 L 834.50 760.90 L 869.90 751.40 L 878.90 748.30 L 884.80 745.80 L 890.40 742.90 L 895.80 739.50 L 909.10 729.20 L 925.70 714.70 L 934.60 706.20 L 944.00 696.60 L 953.30 686.60 L 962.60 675.80 L 971.50 664.60 L 980.00 652.90 L 985.30 644.90 L 994.70 628.80 L 998.80 620.40 L 1002.40 612.20 L 1005.40 604.00" fill="none" group-id="11,36" id="路径_378" node-id="42" stroke="#b1e5c1" stroke-linecap="butt" stroke-width="2" target-height="269.8" target-width="275.2" target-x="730.2" target-y="604"></path></g></svg>