<?xml version="1.0" standalone="no"?><!DOCTYPE svg PUBLIC "-//W3C//DTD SVG 1.1//EN" "http://www.w3.org/Graphics/SVG/1.1/DTD/svg11.dtd"><svg t="1716798504776" class="icon" viewBox="0 0 1024 1024" version="1.1" xmlns="http://www.w3.org/2000/svg" p-id="2072" xmlns:xlink="http://www.w3.org/1999/xlink" width="200" height="200"><path d="M85.333333 213.333333a128 128 0 0 1 128-128h597.333334a128 128 0 0 1 128 128v597.333334a128 128 0 0 1-128 128H213.333333a128 128 0 0 1-128-128V213.333333z" fill="#FDF6EF" p-id="2073"></path><path d="M829.866667 277.333333h-25.6c-2.176 0-3.776-0.448-4.8-1.365333-0.896-1.024-1.365333-2.624-1.365334-4.778667V160.597333c0-2.154667 0.469333-3.690667 1.365334-4.608 1.024-1.024 2.624-1.536 4.778666-1.536h17.749334a13.013333 13.013333 0 0 1 5.461333 1.024 13.056 13.056 0 0 1 4.608 3.584l33.109333 37.888V160.597333c0-2.154667 0.469333-3.690667 1.365334-4.608 1.024-1.024 2.624-1.536 4.778666-1.536h25.6c2.176 0 3.712 0.512 4.608 1.536 1.024 0.917333 1.536 2.453333 1.536 4.608v110.592c0 2.154667-0.512 3.754667-1.536 4.778667-0.896 0.917333-2.432 1.365333-4.608 1.365333h-25.6c-2.154667 0-3.754667-0.448-4.778666-1.365333-0.896-1.024-1.365333-2.624-1.365334-4.778667v-20.992l-29.184-35.328v56.32c0 2.154667-0.512 3.754667-1.536 4.778667-0.896 0.917333-2.432 1.365333-4.608 1.365333zM717.994667 190.293333l-8.021334 25.941334h26.794667L728.746667 190.293333a5.802667 5.802667 0 0 0-1.536-2.218666 2.325333 2.325333 0 0 0-1.706667-0.682667h-4.266667a2.944 2.944 0 0 0-1.877333 0.682667 7.552 7.552 0 0 0-1.365333 2.218666z m-9.728 80.896c0 2.154667-0.512 3.754667-1.536 4.778667-0.917333 0.917333-2.453333 1.365333-4.608 1.365333h-25.088c-2.176 0-3.754667-0.448-4.778667-1.365333-0.917333-1.024-1.365333-2.624-1.365333-4.778667V226.133333c0-3.413333 0.512-7.338667 1.536-11.776 1.130667-4.437333 2.837333-9.6 5.12-15.530666l14.848-38.741334a8.192 8.192 0 0 1 3.072-4.266666 10.602667 10.602667 0 0 1 5.632-1.365334h45.909333c2.154667 0 3.925333 0.448 5.290667 1.365334 1.472 0.917333 2.56 2.346667 3.242666 4.266666l14.848 38.741334c2.261333 5.909333 3.925333 11.093333 4.949334 15.530666 1.130667 4.437333 1.706667 8.362667 1.706666 11.776v45.056c0 2.154667-0.512 3.754667-1.536 4.778667-0.917333 0.917333-2.453333 1.365333-4.608 1.365333h-25.770666c-2.282667 0-3.989333-0.448-5.12-1.365333-1.024-1.024-1.536-2.624-1.536-4.778667v-23.893333H708.266667v23.893333zM647.786667 277.333333h-86.869334c-2.154667 0-3.754667-0.448-4.778666-1.365333-0.917333-1.024-1.365333-2.624-1.365334-4.778667V160.597333c0-2.154667 0.448-3.690667 1.365334-4.608 1.024-1.024 2.624-1.536 4.778666-1.536h26.453334c2.154667 0 3.690667 0.512 4.608 1.536 1.024 0.917333 1.536 2.453333 1.536 4.608v84.48h23.381333v-27.648c0-2.154667 0.448-3.690667 1.365333-4.608 1.024-1.024 2.624-1.536 4.778667-1.536h24.746667c2.176 0 3.712 0.512 4.608 1.536 1.024 0.917333 1.536 2.453333 1.536 4.608v53.76c0 2.154667-0.512 3.754667-1.536 4.778667-0.917333 0.917333-2.432 1.365333-4.608 1.365333zM471.04 277.333333h-26.453333c-2.154667 0-3.754667-0.448-4.778667-1.365333-0.917333-1.024-1.365333-2.624-1.365333-4.778667V160.597333c0-2.154667 0.448-3.690667 1.365333-4.608 1.024-1.024 2.624-1.536 4.778667-1.536h52.224c15.466667 0 26.048 3.072 31.744 9.216 5.696 6.144 8.533333 14.165333 8.533333 24.064v21.845334c0 9.898667-2.837333 17.92-8.533333 24.064-5.696 6.144-16.277333 9.216-31.744 9.216h-19.626667v28.330666c0 2.154667-0.512 3.754667-1.536 4.778667-0.917333 0.917333-2.453333 1.365333-4.608 1.365333z m5.802667-90.965333v25.770667h15.36c3.306667 0 5.461333-0.853333 6.485333-2.56a11.050667 11.050667 0 0 0 1.536-5.802667v-9.045333a11.050667 11.050667 0 0 0-1.536-5.802667c-1.024-1.706667-3.2-2.56-6.485333-2.56h-15.36z" fill="#381715" p-id="2074"></path><path d="M405.333333 320h533.333334v170.666667H405.333333v-170.666667z" fill="#E3DCD6" fill-opacity=".5" p-id="2075"></path><path d="M474.666667 405.333333a16 16 0 0 1 16-16h362.666666a16 16 0 0 1 0 32H490.666667a16 16 0 0 1-16-16z" fill="#381715" fill-opacity=".2" p-id="2076"></path><path d="M474.666667 576a16 16 0 0 1 16-16h298.666666a16 16 0 0 1 0 32H490.666667a16 16 0 0 1-16-16zM474.666667 682.666667a16 16 0 0 1 16-16h362.666666a16 16 0 0 1 0 32H490.666667a16 16 0 0 1-16-16z" fill="#381715" p-id="2077"></path><path d="M85.333333 213.333333a128 128 0 0 1 128-128h192v853.333334h-192a128 128 0 0 1-128-128V213.333333z" fill="#EF4D43" p-id="2078"></path><path d="M298.666667 384a64 64 0 1 1-128 0 64 64 0 0 1 128 0z" fill="#381715" fill-opacity=".2" p-id="2079"></path><path d="M64 384a21.333333 21.333333 0 0 1 21.333333-21.333333h149.333334a21.333333 21.333333 0 1 1 0 42.666666H85.333333a21.333333 21.333333 0 0 1-21.333333-21.333333z" fill="#381715" p-id="2080"></path><path d="M298.666667 213.333333a64 64 0 1 1-128 0 64 64 0 0 1 128 0z" fill="#381715" fill-opacity=".2" p-id="2081"></path><path d="M64 213.333333a21.333333 21.333333 0 0 1 21.333333-21.333333h149.333334a21.333333 21.333333 0 1 1 0 42.666667H85.333333a21.333333 21.333333 0 0 1-21.333333-21.333334z" fill="#381715" p-id="2082"></path><path d="M405.333333 768h533.333334v42.666667a128 128 0 0 1-128 128H405.333333v-170.666667z" fill="#E3DCD6" fill-opacity=".5" p-id="2083"></path><path d="M474.666667 853.333333a16 16 0 0 1 16-16h362.666666a16 16 0 0 1 0 32H490.666667a16 16 0 0 1-16-16z" fill="#381715" fill-opacity=".2" p-id="2084"></path></svg>